<?xml version="1.0" encoding="utf-8"?>
<!-- Generator: Adobe Illustrator 23.0.3, SVG Export Plug-In . SVG Version: 6.00 Build 0)  -->
<svg version="1.1" id="Layer_1" xmlns="http://www.w3.org/2000/svg" xmlns:xlink="http://www.w3.org/1999/xlink" x="0px" y="0px"
	 viewBox="0 0 1280 640" style="enable-background:new 0 0 1280 640;" xml:space="preserve">
<style type="text/css">
	.st0{fill:#FFFFFF;}
	.st1{fill:#646464;}
	.st2{fill:#83A61E;}
</style>
<rect class="st0" width="1280" height="640"/>
<g>
	<path class="st1" d="M1038.07,358.28c18.45-18.38,18.45-48.18,0-66.55l-33.42-33.28L871,125.34c-18.45-18.38-18.45-48.18,0-66.55
		c18.45-18.38,48.38-18.38,66.83,0l200.49,199.66c36.91,36.76,36.91,96.35,0,133.11L937.83,591.22c-18.45,18.38-48.38,18.38-66.83,0
		c-18.45-18.38-18.45-48.18,0-66.55"/>
	<path class="st1" d="M253.93,358.28c-18.45-18.38-18.45-48.18,0-66.55l33.42-33.28L421,125.34c18.45-18.38,18.45-48.18,0-66.55
		s-48.38-18.38-66.83,0L153.68,258.45c-36.91,36.76-36.91,96.35,0,133.11l200.49,199.66c18.45,18.38,48.38,18.38,66.83,0
		s18.45-48.18,0-66.55"/>
	<ellipse class="st2" cx="462.7" cy="325" rx="88.61" ry="88.24"/>
	<path class="st1" d="M746.24,472.07c-81.56,0-147.68-65.84-147.68-147.07s66.12-147.07,147.68-147.07S893.91,243.78,893.91,325
		S827.79,472.07,746.24,472.07z M746.24,240.33c-46.96,0-85.03,37.91-85.03,84.67s38.07,84.67,85.03,84.67s85.03-37.91,85.03-84.67
		S793.19,240.33,746.24,240.33z"/>
</g>
</svg>
