<?xml version="1.0" encoding="utf-8"?>
<svg version="1.1" id="Layer_1" xmlns="http://www.w3.org/2000/svg" xmlns:xlink="http://www.w3.org/1999/xlink" x="0px" y="0px"
	 viewBox="0 0 960 512" xml:space="preserve">
<style type="text/css">
	.st0{fill:#646464;}
	.st1{fill:#83A61E;}
</style>
<g>
	<path class="st0" d="M816.1,284.5c15.8-15.8,15.8-41.3,0-57L787.4,199L672.9,84.9c-15.8-15.8-15.8-41.3,0-57
		c15.8-15.8,41.5-15.8,57.3,0L902,199c31.6,31.5,31.6,82.6,0,114.1L730.1,484.2c-15.8,15.8-41.5,15.8-57.3,0
		c-15.8-15.8-15.8-41.3,0-57"/>
	<path class="st0" d="M143.9,284.5c-15.8-15.8-15.8-41.3,0-57l28.6-28.5L287.1,84.9c15.8-15.8,15.8-41.3,0-57s-41.5-15.8-57.3,0
		L58,199c-31.6,31.5-31.6,82.6,0,114.1l171.8,171.1c15.8,15.8,41.5,15.8,57.3,0c15.8-15.8,15.8-41.3,0-57"/>
	<ellipse class="st1" cx="322.9" cy="256" rx="76" ry="75.6"/>
	<path class="st0" d="M565.9,382.1c-69.9,0-126.6-56.4-126.6-126.1S496,129.9,565.9,129.9S692.5,186.4,692.5,256
		S635.8,382.1,565.9,382.1z M565.9,183.4c-40.3,0-72.9,32.5-72.9,72.6s32.6,72.6,72.9,72.6c40.3,0,72.9-32.5,72.9-72.6
		S606.2,183.4,565.9,183.4z"/>
</g>
</svg>
