<svg id="Layer_2" data-name="Layer 2" xmlns="http://www.w3.org/2000/svg" viewBox="0 0 92 26"><defs><style>.cls-1{fill:#3a8e03;}.cls-2{fill:#8ccc62;}.cls-3{font-size:24.01px;fill:#6b6b6b;font-family:Gelasio-Regular, Gelasio;}</style></defs><path class="cls-1" d="M7.94,16.38l1.18-1.19a1.64,1.64,0,0,0,.4-1.5,3.56,3.56,0,0,1,1-3.25h0a3.53,3.53,0,0,1,3.25-1,1.64,1.64,0,0,0,1.5-.4l1.19-1.18L19.2,5.12a.69.69,0,0,0-.09-1.06A8.86,8.86,0,0,0,17.06,3,11.15,11.15,0,0,0,5.4,5.35h0A11.17,11.17,0,0,0,3,17a9.25,9.25,0,0,0,1.09,2,.69.69,0,0,0,1.06.09Z"/><path class="cls-1" d="M18.13,9.59,17,10.78a1.64,1.64,0,0,0-.4,1.5,3.56,3.56,0,0,1-1,3.25h0a3.58,3.58,0,0,1-3.25,1,1.64,1.64,0,0,0-1.5.4L9.64,18.08,6.87,20.85A.69.69,0,0,0,7,21.91,9.25,9.25,0,0,0,9,23a11.17,11.17,0,0,0,11.66-2.38h0A11.17,11.17,0,0,0,23.05,9,9.25,9.25,0,0,0,22,6.91a.69.69,0,0,0-1.06-.09Z"/><path class="cls-2" d="M12.33,16.5a1.64,1.64,0,0,0-1.5.4L9.64,18.08l-.77.77a7.19,7.19,0,0,0,10-10l-.77.77L17,10.78a1.64,1.64,0,0,0-.4,1.5,3.56,3.56,0,0,1-1,3.25h0A3.58,3.58,0,0,1,12.33,16.5Z"/><path class="cls-2" d="M13.74,9.47a1.64,1.64,0,0,0,1.5-.4l1.19-1.18.77-.77a7.19,7.19,0,0,0-10,10l.77-.77,1.18-1.19a1.64,1.64,0,0,0,.4-1.5,3.56,3.56,0,0,1,1-3.25h0A3.53,3.53,0,0,1,13.74,9.47Z"/><text class="cls-3" transform="translate(27.4 21.31)">IoGui</text></svg>