<?xml version="1.0" encoding="utf-8"?>
<!-- Generator: Adobe Illustrator 23.0.3, SVG Export Plug-In . SVG Version: 6.00 Build 0)  -->
<svg version="1.1" id="Layer_1" xmlns="http://www.w3.org/2000/svg" xmlns:xlink="http://www.w3.org/1999/xlink" x="0px" y="0px"
	 viewBox="0 0 512 512" style="enable-background:new 0 0 512 512;" xml:space="preserve">
<style type="text/css">
	.st0{fill:#FFFFFF;}
	.st1{fill:#646464;}
	.st2{fill:#83A61E;}
</style>
<rect x="1.9" class="st0" width="510.1" height="512"/>
<g>
	<path class="st1" d="M419.8,269.9c7.7-7.7,7.7-20.1,0-27.8l-14-13.9L350,172.6c-7.7-7.7-7.7-20.1,0-27.8c7.7-7.7,20.2-7.7,27.9,0
		l83.8,83.4c15.4,15.4,15.4,40.3,0,55.6l-83.8,83.4c-7.7,7.7-20.2,7.7-27.9,0c-7.7-7.7-7.7-20.1,0-27.8"/>
	<path class="st1" d="M92.2,269.9c-7.7-7.7-7.7-20.1,0-27.8l14-13.9l55.8-55.6c7.7-7.7,7.7-20.1,0-27.8c-7.7-7.7-20.2-7.7-27.9,0
		l-83.8,83.4c-15.4,15.4-15.4,40.3,0,55.6l83.8,83.4c7.7,7.7,20.2,7.7,27.9,0s7.7-20.1,0-27.8"/>
	<ellipse class="st2" cx="179.4" cy="256" rx="37" ry="36.9"/>
	<path class="st1" d="M297.9,317.4c-34.1,0-61.7-27.5-61.7-61.5s27.6-61.5,61.7-61.5s61.7,27.5,61.7,61.5S332,317.4,297.9,317.4z
		 M297.9,220.6c-19.6,0-35.5,15.8-35.5,35.4c0,19.5,15.9,35.4,35.5,35.4s35.5-15.8,35.5-35.4S317.5,220.6,297.9,220.6z"/>
</g>
</svg>
