<?xml version="1.0" encoding="utf-8"?>
<svg version="1.1" id="Layer_1" xmlns="http://www.w3.org/2000/svg" xmlns:xlink="http://www.w3.org/1999/xlink" x="0px" y="0px"
	 viewBox="0 0 512 512" xml:space="preserve">
<style type="text/css">
	.st0{fill:#646464;}
	.st1{fill:#83A61E;}
</style>
<g>
	<path class="st0" d="M436.6,271.3c8.5-8.5,8.5-22.2,0-30.7l-15.4-15.3L359.7,164c-8.5-8.5-8.5-22.2,0-30.7c8.5-8.5,22.3-8.5,30.8,0
		l92.4,92c17,17,17,44.4,0,61.3l-92.4,92c-8.5,8.5-22.3,8.5-30.8,0c-8.5-8.5-8.5-22.2,0-30.7"/>
	<path class="st0" d="M75.4,271.3c-8.5-8.5-8.5-22.2,0-30.7l15.4-15.3l61.5-61.3c8.5-8.5,8.5-22.2,0-30.7c-8.5-8.5-22.3-8.5-30.8,0
		l-92.4,92c-17,17-17,44.4,0,61.3l92.4,92c8.5,8.5,22.3,8.5,30.8,0c8.5-8.5,8.5-22.2,0-30.7"/>
	<ellipse class="st1" cx="171.5" cy="256" rx="40.8" ry="40.7"/>
	<path class="st0" d="M302.2,323.7c-37.6,0-68-30.3-68-67.8s30.4-67.8,68-67.8s68,30.3,68,67.8S339.8,323.7,302.2,323.7z M302.2,217
		c-21.6,0-39.1,17.4-39.1,39c0,21.5,17.5,39,39.1,39c21.6,0,39.1-17.4,39.1-39S323.8,217,302.2,217z"/>
</g>
</svg>
