<?xml version="1.0" encoding="UTF-8" standalone="no"?>
<!-- Created with Inkscape (http://www.inkscape.org/) -->

<svg
   xmlns:dc="http://purl.org/dc/elements/1.1/"
   xmlns:cc="http://creativecommons.org/ns#"
   xmlns:rdf="http://www.w3.org/1999/02/22-rdf-syntax-ns#"
   xmlns:svg="http://www.w3.org/2000/svg"
   xmlns="http://www.w3.org/2000/svg"
   xmlns:sodipodi="http://sodipodi.sourceforge.net/DTD/sodipodi-0.dtd"
   xmlns:inkscape="http://www.inkscape.org/namespaces/inkscape"
   width="90mm"
   height="32mm"
   viewBox="0 0 90 32"
   version="1.1"
   id="svg8"
   inkscape:version="0.92.3 (2405546, 2018-03-11)"
   sodipodi:docname="io.svg">
  <defs
     id="defs2" />
  <sodipodi:namedview
     id="base"
     pagecolor="#ffffff"
     bordercolor="#666666"
     borderopacity="1.0"
     inkscape:pageopacity="0.0"
     inkscape:pageshadow="2"
     inkscape:zoom="3.1509275"
     inkscape:cx="134.90558"
     inkscape:cy="95.75017"
     inkscape:document-units="cm"
     inkscape:current-layer="text5071"
     showgrid="false"
     objecttolerance="10000"
     guidetolerance="10000"
     inkscape:window-width="2560"
     inkscape:window-height="1377"
     inkscape:window-x="-8"
     inkscape:window-y="-8"
     inkscape:window-maximized="1">
    <inkscape:grid
       type="xygrid"
       id="grid817"
       spacingx="0.99999999"
       spacingy="0.99999999"
       dotted="false"
       enabled="true"
       visible="true"
       snapvisiblegridlinesonly="true"
       color="#e33fff"
       opacity="0.1254902"
       units="cm" />
  </sodipodi:namedview>
  <metadata
     id="metadata5">
    <rdf:RDF>
      <cc:Work
         rdf:about="">
        <dc:format>image/svg+xml</dc:format>
        <dc:type
           rdf:resource="http://purl.org/dc/dcmitype/StillImage" />
        <dc:title></dc:title>
      </cc:Work>
    </rdf:RDF>
  </metadata>
  <g
     inkscape:label="Layer 1"
     inkscape:groupmode="layer"
     id="layer1"
     transform="translate(0,-265)">
    <g
       transform="matrix(11.719631,0,0,11.719631,2.3691255,-3129.2144)"
       id="layer1-4"
       inkscape:label="Layer 1">
      <g
         id="text5071"
         style="font-style:normal;font-weight:normal;font-size:10.58333302px;line-height:1.25;font-family:sans-serif;letter-spacing:0px;word-spacing:0px;fill:#000000;fill-opacity:1;stroke:none;stroke-width:0.26458332"
         aria-label="IO:UI">
        <path
           style="fill:#83a61e;fill-opacity:1;stroke:none;stroke-width:0.06382968;stroke-miterlimit:4;stroke-dasharray:none;stroke-dashoffset:0;stroke-opacity:1"
           d="m 4.0550268,290.89754 c -3.7e-6,0.23318 -0.189031,0.4222 -0.4222067,0.4222 -0.2331757,0 -0.422203,-0.18902 -0.4222067,-0.4222 -1.8e-6,-0.23317 0.1890271,-0.42221 0.4222067,-0.42221 0.2331796,0 0.4222085,0.18904 0.4222067,0.42221 z"
           id="path829" />
        <path
           style="fill:#646464;fill-opacity:1;stroke:none;stroke-width:0.06382968;stroke-miterlimit:4;stroke-dasharray:none;stroke-dashoffset:0;stroke-opacity:1"
           d="M 7.4772726,291.75103 H 7.050638 v -1.27991 h 0.4266346 z"
           id="path827" />
        <path
           style="fill:#646464;fill-opacity:1;stroke:none;stroke-width:0.06382968;stroke-miterlimit:4;stroke-dasharray:none;stroke-dashoffset:0;stroke-opacity:1"
           d="m 5.5656701,292.34079 c -0.2218641,0 -0.4120334,-0.0434 -0.5705078,-0.13022 -0.1570963,-0.0882 -0.2769857,-0.21566 -0.359668,-0.38241 -0.082682,-0.16812 -0.1446638,-0.37 -0.1446638,-0.60565 v -0.75139 h 0.4266346 v 0.76586 c 0,0.21911 0.070808,0.38861 0.1810501,0.5085 0.110243,0.11989 0.2659613,0.17983 0.4671549,0.17983 0.2025716,0 0.3589789,-0.0599 0.469222,-0.17983 0.1116211,-0.11989 0.1618774,-0.28938 0.1624767,-0.5085 v -0.76586 h 0.4266346 v 0.75139 c 0,0.23565 -0.041341,0.43753 -0.1240235,0.60565 -0.082682,0.16675 -0.2032606,0.29422 -0.361735,0.38241 -0.1584744,0.0868 -0.3493327,0.13022 -0.5725748,0.13022 z"
           id="path825" />
        <path
           style="fill:#646464;fill-opacity:1;stroke:none;stroke-width:2.82731462;stroke-miterlimit:4;stroke-dasharray:none;stroke-dashoffset:0;stroke-opacity:1"
           d="M 85.310547 0.20703125 C 76.032506 0.20703125 67.852093 2.253399 60.771484 6.3417969 C 53.690875 10.370397 48.19754 16.107868 44.291016 23.554688 C 40.445503 30.94038 38.523438 39.516672 38.523438 49.283203 L 38.523438 58.759766 C 38.523437 68.526297 40.44553 77.133258 44.291016 84.580078 C 48.197557 91.965771 53.690875 97.704571 60.771484 101.79297 C 67.852093 105.82024 76.032506 107.83594 85.310547 107.83594 C 94.588588 107.83594 102.76704 105.82378 109.84766 101.79297 C 116.92827 97.703242 122.3928 91.965771 126.23828 84.580078 C 130.14483 77.133258 132.09766 68.526297 132.09766 58.759766 L 132.09766 49.283203 C 132.09766 39.516672 130.14481 30.94038 126.23828 23.554688 C 122.39278 16.107868 116.92827 10.368182 109.84766 6.3417969 C 102.76704 2.2538419 94.588588 0.20703125 85.310547 0.20703125 z M 85.310547 18.611328 C 90.804127 18.611328 95.626623 19.860632 99.777344 22.363281 C 103.98909 24.804803 107.22397 28.314281 109.48242 32.892578 C 111.80191 37.409305 112.96094 42.65863 112.96094 48.640625 L 112.96094 59.400391 C 112.96094 65.382386 111.80191 70.66238 109.48242 75.240234 C 107.22395 79.758733 103.9891 83.266882 99.777344 85.769531 C 95.626641 88.210167 90.804127 89.431641 85.310547 89.431641 C 79.816972 89.431641 74.963712 88.210167 70.751953 85.769531 C 66.601246 83.266882 63.366365 79.756962 61.046875 75.240234 C 58.788423 70.66238 57.660156 65.382386 57.660156 59.400391 L 57.660156 48.640625 C 57.660156 42.65863 58.788423 37.409305 61.046875 32.892578 C 63.366383 28.315167 66.601233 24.803917 70.751953 22.363281 C 74.963698 19.860632 79.816972 18.611328 85.310547 18.611328 z "
           transform="matrix(0.02257608,0,0,0.02257608,-0.20215018,289.61786)"
           id="path823" />
        <path
           style="fill:#646464;fill-opacity:1;stroke:none;stroke-width:0.06382968;stroke-miterlimit:4;stroke-dasharray:none;stroke-dashoffset:0;stroke-opacity:1"
           d="m 0.22448462,291.75106 h -0.42663459 v -1.27991 h 0.42663459 z"
           id="path5102" />
      </g>
    </g>
  </g>
</svg>
