<?xml version="1.0" encoding="utf-8"?>
<!-- Generator: Adobe Illustrator 23.0.4, SVG Export Plug-In . SVG Version: 6.00 Build 0)  -->
<svg version="1.1" id="Layer_1" xmlns="http://www.w3.org/2000/svg" xmlns:xlink="http://www.w3.org/1999/xlink" x="0px" y="0px"
	 viewBox="0 0 24 24" style="enable-background:new 0 0 24 24;" xml:space="preserve">
<style type="text/css">
	.st0{fill:#83A61E;}
	.st1{fill:#646464;}
</style>
<g id="unlink">
	<path d="M3.2,12c0-1.9,1.5-3.4,3.4-3.4h4.3v-2H6.6c-3,0-5.4,2.4-5.4,5.4s2.4,5.4,5.4,5.4h4.3v-2.1H6.6C4.7,15.4,3.2,13.9,3.2,12z
		 M17.4,6.6H13v2.1h4.4c1.9,0,3.4,1.5,3.4,3.4s-1.5,3.4-3.4,3.4H13v2.1h4.4c3,0,5.4-2.4,5.4-5.4S20.4,6.6,17.4,6.6z"/>
</g>
<g id="link">
	<path d="M3.2,12c0-1.9,1.5-3.4,3.4-3.4h4.3v-2H6.6c-3,0-5.4,2.4-5.4,5.4s2.4,5.4,5.4,5.4h4.3v-2.1H6.6C4.7,15.4,3.2,13.9,3.2,12z
		 M7.7,13.1h8.7v-2.2H7.7V13.1z M17.4,6.6H13v2.1h4.4c1.9,0,3.4,1.5,3.4,3.4s-1.5,3.4-3.4,3.4H13v2.1h4.4c3,0,5.4-2.4,5.4-5.4
		S20.4,6.6,17.4,6.6z"/>
</g>
<g id="gear">
	<path d="M22.7,14.9L20.3,13c0-0.4,0.1-0.7,0.1-1.1s0-0.7-0.1-1.1l2.4-1.9c0.2-0.2,0.3-0.5,0.1-0.7l-2.2-3.9
		c-0.1-0.2-0.4-0.3-0.7-0.2l-2.8,1.1c-0.6-0.4-1.2-0.8-1.9-1.1l-0.4-3c0-0.3-0.3-0.5-0.5-0.5H9.8C9.5,0.8,9.3,1,9.2,1.3l-0.4,3
		c-0.7,0.2-1.3,0.6-1.9,1L4.1,4.2c-0.2-0.1-0.5,0-0.7,0.2L1.2,8.3C1.1,8.6,1.1,8.9,1.3,9.1L3.7,11c0,0.4-0.1,0.7-0.1,1.1
		s0,0.7,0.1,1.1l-2.4,1.9c-0.2,0.2-0.3,0.5-0.1,0.7l2.2,3.9c0.1,0.2,0.4,0.3,0.7,0.2l2.8-1.1c0.6,0.5,1.2,0.8,1.9,1.1l0.4,3
		c0,0.3,0.3,0.5,0.6,0.5h4.5c0.3,0,0.5-0.2,0.6-0.5l0.4-3c0.7-0.3,1.3-0.6,1.9-1.1l2.8,1.1c0.2,0.1,0.5,0,0.7-0.2l2.2-3.9
		C23,15.4,22.9,15.1,22.7,14.9z M12,16.1c-2.3,0-4.2-1.9-4.2-4.2S9.7,7.8,12,7.8s4.2,1.9,4.2,4.2S14.3,16.1,12,16.1z"/>
</g>
<g id="io-gui-logo-io">
	<ellipse class="st0" cx="4.8" cy="12" rx="3.7" ry="3.7"/>
	<path class="st1" d="M16.7,18.2c-3.4,0-6.2-2.8-6.2-6.2s2.8-6.2,6.2-6.2s6.2,2.8,6.2,6.2S20.1,18.2,16.7,18.2z M16.7,8.5
		c-2,0-3.6,1.6-3.6,3.5s1.6,3.5,3.6,3.5s3.6-1.6,3.6-3.5S18.7,8.5,16.7,8.5z"/>
</g>
<g id="io-gui-logo">
	<path class="st1" d="M20.4,12.7c0.4-0.4,0.4-1,0-1.4l-0.7-0.7l-2.8-2.8c-0.4-0.4-0.4-1,0-1.4s1-0.4,1.4,0l4.2,4.2
		c0.8,0.8,0.8,2,0,2.8l-4.2,4.2c-0.4,0.4-1,0.4-1.4,0s-0.4-1,0-1.4"/>
	<path class="st1" d="M3.7,12.7c-0.4-0.4-0.4-1,0-1.4l0.7-0.7l2.8-2.8c0.4-0.4,0.4-1,0-1.4C6.9,6,6.3,6,5.9,6.4l-4.2,4.2
		c-0.8,0.8-0.8,2,0,2.8l4.2,4.2c0.4,0.4,1,0.4,1.4,0s0.4-1,0-1.4"/>
	<ellipse class="st0" cx="8.2" cy="12" rx="1.9" ry="1.9"/>
	<path class="st1" d="M14.2,15.1c-1.7,0-3.1-1.4-3.1-3.1s1.4-3.1,3.1-3.1s3.1,1.4,3.1,3.1S15.9,15.1,14.2,15.1z M14.2,10.2
		c-1,0-1.8,0.8-1.8,1.8s0.8,1.8,1.8,1.8S16,13,16,12S15.2,10.2,14.2,10.2z"/>
</g>
<g id="check">
	<path d="M20.4,1H3.5C2.2,1,1.1,2.1,1.1,3.4v16.9c0,1.3,1.1,2.4,2.4,2.4h16.9c1.3,0,2.4-1.1,2.4-2.4V3.4C22.8,2.1,21.7,1,20.4,1z
		 M9.6,17.9l-6-6l1.7-1.7l4.3,4.3l9.1-9.1L20.4,7L9.6,17.9z"/>
</g>
<g id="uncheck">
	<path d="M20.4,3.4v16.9H3.5V3.4H20.4 M20.4,1H3.5C2.2,1,1.1,2.1,1.1,3.4v16.9c0,1.3,1.1,2.4,2.4,2.4h16.9c1.3,0,2.4-1.1,2.4-2.4
		V3.4C22.8,2.1,21.7,1,20.4,1z"/>
</g>
</svg>
