<?xml version="1.0" encoding="utf-8"?>
<!-- Generator: Adobe Illustrator 24.1.2, SVG Export Plug-In . SVG Version: 6.00 Build 0)  -->
<svg version="1.1" id="Layer_2" xmlns="http://www.w3.org/2000/svg" xmlns:xlink="http://www.w3.org/1999/xlink" x="0px" y="0px"
	 viewBox="0 0 88.8 26.4" style="enable-background:new 0 0 88.8 26.4;" xml:space="preserve">
<style type="text/css">
	.st0{fill:#3A8E03;}
	.st1{fill:#8CCC62;}
	.st2{fill:#6B6B6B;}
	.st3{font-family:'Gelasio-Regular';}
	.st4{font-size:24.0073px;}
</style>
<path class="st0" d="M8.1,16.6c0,0,0.7-0.7,1.2-1.2c0.4-0.4,0.5-1,0.4-1.5c-0.2-1.1,0.1-2.4,1-3.3l0,0c0.9-0.9,2.1-1.2,3.3-1
	c0.5,0.1,1.1,0,1.5-0.4c0.5-0.5,1.2-1.2,1.2-1.2c0.2-0.2,1.5-1.5,2.8-2.8c0.3-0.3,0.3-0.8-0.1-1.1c-0.5-0.4-1.2-0.8-2-1.1
	C13.7,1.8,8.7,2.3,5.6,5.6l0,0c-3.2,3.2-3.8,8.1-2.4,11.7c0.3,0.8,0.7,1.5,1.1,2c0.3,0.4,0.8,0.4,1.1,0.1
	C6.6,18.1,7.9,16.8,8.1,16.6z"/>
<path class="st0" d="M18.3,9.8c0,0-0.7,0.7-1.2,1.2c-0.4,0.4-0.5,1-0.4,1.5c0.2,1.1-0.1,2.4-1,3.3l0,0c-0.9,0.9-2.1,1.2-3.3,1
	c-0.5-0.1-1.1,0-1.5,0.4c-0.5,0.5-1.2,1.2-1.2,1.2c-0.2,0.2-1.5,1.5-2.8,2.8c-0.3,0.3-0.3,0.8,0.1,1.1c0.5,0.4,1.2,0.8,2,1.1
	c3.6,1.4,8.5,0.8,11.7-2.4l0,0c3.2-3.2,3.8-8.1,2.4-11.7c-0.3-0.8-0.7-1.5-1.1-2c-0.3-0.4-0.8-0.4-1.1-0.1
	C19.8,8.3,18.5,9.6,18.3,9.8z"/>
<path class="st1" d="M12.5,16.7c-0.5-0.1-1.1,0-1.5,0.4c-0.5,0.5-1.2,1.2-1.2,1.2c-0.1,0.1-0.4,0.4-0.8,0.8c2.8,2,6.7,1.7,9.3-0.8
	s2.8-6.4,0.8-9.3c-0.4,0.4-0.7,0.7-0.8,0.8c0,0-0.7,0.7-1.2,1.2c-0.4,0.4-0.5,1-0.4,1.5c0.2,1.1-0.1,2.4-1,3.3l0,0
	C14.9,16.6,13.6,16.9,12.5,16.7z"/>
<path class="st1" d="M13.9,9.7c0.5,0.1,1.1,0,1.5-0.4c0.5-0.5,1.2-1.2,1.2-1.2C16.7,8,17,7.7,17.4,7.3c-2.8-2-6.7-1.7-9.3,0.8
	c-2.5,2.5-2.8,6.4-0.8,9.3C7.7,17,8,16.7,8.1,16.6c0,0,0.7-0.7,1.2-1.2c0.4-0.4,0.5-1,0.4-1.5c-0.2-1.1,0.1-2.4,1-3.3l0,0
	C11.5,9.8,12.8,9.5,13.9,9.7z"/>
<text transform="matrix(1 0 0 1 25.199 21.5213)" class="st2 st3 st4">IoGui</text>
<circle class="st2" cx="82.4" cy="6.2" r="1.8"/>
</svg>
