<?xml version="1.0" encoding="utf-8"?>
<svg version="1.1" id="Layer_1" xmlns="http://www.w3.org/2000/svg" xmlns:xlink="http://www.w3.org/1999/xlink" x="0px" y="0px"
	 viewBox="0 0 24 24" style="enable-background:new 0 0 24 24;" xml:space="preserve">
<style type="text/css">
	.st0{fill:#83A61E;}
	.st1{fill:#646464;}
</style>
<g id="io">
	<ellipse class="st0" cx="5.4" cy="12.1" rx="3.4" ry="3.4"/>
	<path class="st1" d="M16.3,17.7c-3.1,0-5.6-2.6-5.6-5.6s2.6-5.6,5.6-5.6s5.6,2.6,5.6,5.6S19.3,17.7,16.3,17.7z M16.3,8.8
		c-1.8,0-3.3,1.5-3.3,3.2s1.5,3.2,3.3,3.2s3.3-1.5,3.3-3.2S18.1,8.8,16.3,8.8z"/>
</g>
<g id="io_logo">
	<path class="st1" d="M19.5,12.7c0.3-0.3,0.3-0.9,0-1.2l-0.7-0.7l-2.6-2.6c-0.3-0.3-0.3-0.9,0-1.2c0.3-0.3,0.9-0.3,1.2,0l3.8,3.8
		c0.7,0.7,0.7,1.8,0,2.6l-3.8,3.8c-0.3,0.3-0.9,0.3-1.2,0c-0.3-0.3-0.3-0.9,0-1.2"/>
	<path class="st1" d="M4.3,12.7c-0.3-0.3-0.3-0.9,0-1.2L5,10.8l2.6-2.6c0.3-0.3,0.3-0.9,0-1.2C7.3,6.7,6.7,6.7,6.4,7l-3.8,3.8
		c-0.7,0.7-0.7,1.8,0,2.6l3.8,3.8c0.3,0.3,0.9,0.3,1.2,0s0.3-0.9,0-1.2"/>
	<ellipse class="st0" cx="8.4" cy="12.1" rx="1.7" ry="1.7"/>
	<path class="st1" d="M13.9,14.9c-1.6,0-2.8-1.2-2.8-2.8s1.2-2.8,2.8-2.8s2.8,1.2,2.8,2.8S15.4,14.9,13.9,14.9z M13.9,10.4
		c-0.9,0-1.7,0.7-1.7,1.7c0,0.9,0.7,1.7,1.7,1.7c0.9,0,1.7-0.7,1.7-1.7C15.5,11.2,14.8,10.4,13.9,10.4z"/>
</g>
</svg>
